<svg width="22" height="22" viewBox="0 0 22 22" fill="none" xmlns="http://www.w3.org/2000/svg">
<g id="icon-search.svg" clip-path="url(#clip0_32_28)">
<g id="Clip path group">
<mask id="mask0_32_28" style="mask-type:luminance" maskUnits="userSpaceOnUse" x="0" y="0" width="22" height="22">
<g id="a">
<path id="Ret&#195;&#162;ngulo 16" d="M21.61 0.34H0V21.95H21.61V0.34Z" fill="white"/>
</g>
</mask>
<g mask="url(#mask0_32_28)">
<g id="Grupo 12">
<path id="Caminho 15" d="M12.6908 18.1787C10.9268 18.1787 9.20229 17.6556 7.73551 16.6755C6.26873 15.6954 5.12552 14.3024 4.45043 12.6726C3.77535 11.0428 3.59872 9.24945 3.94287 7.51927C4.28703 5.78909 5.13651 4.19981 6.38391 2.95242C7.6313 1.70502 9.22057 0.855538 10.9508 0.511383C12.6809 0.167228 14.4743 0.343861 16.1041 1.01895C17.7339 1.69403 19.1269 2.83725 20.107 4.30402C21.0871 5.7708 21.6102 7.49527 21.6102 9.25935C21.6075 11.6241 20.667 13.8912 18.9948 15.5634C17.3227 17.2355 15.0556 18.1761 12.6908 18.1787ZM12.6908 2.12367C11.2795 2.12367 9.89992 2.54217 8.72647 3.32625C7.55301 4.11033 6.63841 5.22477 6.09833 6.52864C5.55825 7.83252 5.41694 9.26726 5.69227 10.6515C5.9676 12.0356 6.64721 13.3071 7.64515 14.305C8.64309 15.303 9.91455 15.9826 11.2987 16.2579C12.6829 16.5332 14.1177 16.3919 15.4215 15.8519C16.7254 15.3118 17.8399 14.3972 18.6239 13.2237C19.408 12.0503 19.8265 10.6707 19.8265 9.25935C19.8244 7.3675 19.0719 5.55374 17.7342 4.216C16.3964 2.87826 14.5827 2.12579 12.6908 2.12367Z" fill="#3AA9A9"/>
<path id="Caminho 16" d="M17.2345 7.90941C17.0768 7.90953 16.9219 7.86785 16.7856 7.78862C16.6493 7.7094 16.5364 7.59546 16.4585 7.45841C15.9084 6.47489 15.0711 5.68288 14.0585 5.18841C13.8583 5.07755 13.7084 4.89399 13.6397 4.6757C13.5711 4.45741 13.5889 4.22109 13.6896 4.0156C13.7903 3.81011 13.9661 3.65118 14.1807 3.57167C14.3953 3.49216 14.6322 3.49815 14.8425 3.58841C16.1812 4.24234 17.2888 5.28886 18.0175 6.58841C18.1333 6.79482 18.1626 7.03875 18.0988 7.2667C18.0351 7.49465 17.8836 7.68802 17.6775 7.80441C17.5439 7.87894 17.3935 7.91817 17.2405 7.91841" fill="#3AA9A9"/>
<path id="Caminho 17" d="M0.891869 21.95C0.715405 21.9501 0.542876 21.8979 0.396119 21.7999C0.249361 21.7019 0.134972 21.5626 0.0674282 21.3995C-0.000115627 21.2365 -0.0177778 21.0571 0.016677 20.884C0.0511319 20.711 0.136155 20.552 0.260985 20.4273L6.38285 14.3054C6.55156 14.1458 6.7759 14.0582 7.00815 14.0614C7.2404 14.0646 7.46225 14.1583 7.62649 14.3225C7.79073 14.4868 7.88442 14.7086 7.88762 14.9409C7.89082 15.1731 7.80328 15.3975 7.64362 15.5662L1.52275 21.688C1.43995 21.7709 1.3416 21.8367 1.23333 21.8814C1.12507 21.9262 1.00903 21.9502 0.891869 21.95Z" fill="#3AA9A9"/>
<path id="Caminho 18" d="M12.6908 18.1787C10.9268 18.1787 9.20229 17.6556 7.73551 16.6755C6.26873 15.6954 5.12552 14.3024 4.45043 12.6726C3.77535 11.0428 3.59872 9.24945 3.94287 7.51927C4.28703 5.78909 5.13651 4.19981 6.38391 2.95242C7.6313 1.70502 9.22057 0.855538 10.9508 0.511383C12.6809 0.167228 14.4743 0.343861 16.1041 1.01895C17.7339 1.69403 19.1269 2.83725 20.107 4.30402C21.0871 5.7708 21.6102 7.49527 21.6102 9.25935C21.6075 11.6241 20.667 13.8912 18.9948 15.5634C17.3227 17.2355 15.0556 18.1761 12.6908 18.1787ZM12.6908 2.12367C11.2795 2.12367 9.89992 2.54217 8.72647 3.32625C7.55301 4.11033 6.63841 5.22477 6.09833 6.52864C5.55825 7.83252 5.41694 9.26726 5.69227 10.6515C5.9676 12.0356 6.64721 13.3071 7.64515 14.305C8.64309 15.303 9.91455 15.9826 11.2987 16.2579C12.6829 16.5332 14.1177 16.3919 15.4215 15.8519C16.7254 15.3118 17.8399 14.3972 18.6239 13.2237C19.408 12.0503 19.8265 10.6707 19.8265 9.25935C19.8244 7.3675 19.0719 5.55374 17.7342 4.216C16.3964 2.87826 14.5827 2.12579 12.6908 2.12367Z" fill="#3AA9A9"/>
<path id="Caminho 19" d="M17.2345 7.90941C17.0768 7.90953 16.9219 7.86785 16.7856 7.78862C16.6493 7.7094 16.5364 7.59546 16.4585 7.45841C15.9084 6.47489 15.0711 5.68288 14.0585 5.18841C13.8583 5.07755 13.7084 4.89399 13.6397 4.6757C13.5711 4.45741 13.5889 4.22109 13.6896 4.0156C13.7903 3.81011 13.9661 3.65118 14.1807 3.57167C14.3953 3.49216 14.6322 3.49815 14.8425 3.58841C16.1812 4.24234 17.2888 5.28886 18.0175 6.58841C18.1333 6.79482 18.1626 7.03875 18.0988 7.2667C18.0351 7.49465 17.8836 7.68802 17.6775 7.80441C17.5439 7.87894 17.3935 7.91817 17.2405 7.91841" fill="#3AA9A9"/>
<path id="Caminho 20" d="M0.891869 21.95C0.715405 21.9501 0.542876 21.8979 0.396119 21.7999C0.249361 21.7019 0.134972 21.5626 0.0674282 21.3995C-0.000115627 21.2365 -0.0177778 21.0571 0.016677 20.884C0.0511319 20.711 0.136155 20.552 0.260985 20.4273L6.38285 14.3054C6.55156 14.1458 6.7759 14.0582 7.00815 14.0614C7.2404 14.0646 7.46225 14.1583 7.62649 14.3225C7.79073 14.4868 7.88442 14.7086 7.88762 14.9409C7.89082 15.1731 7.80328 15.3975 7.64362 15.5662L1.52275 21.688C1.43995 21.7709 1.3416 21.8367 1.23333 21.8814C1.12507 21.9262 1.00903 21.9502 0.891869 21.95Z" fill="#3AA9A9"/>
</g>
</g>
</g>
</g>
<defs>
<clipPath id="clip0_32_28">
<rect width="21.61" height="21.61" fill="white" transform="translate(0 0.34)"/>
</clipPath>
</defs>
</svg>
