<svg width="106" height="101" viewBox="0 0 106 101" fill="none" xmlns="http://www.w3.org/2000/svg">
<g id="icon-foundation-world.svg" clip-path="url(#clip0_103_508)">
<g id="Clip path group">
<mask id="mask0_103_508" style="mask-type:luminance" maskUnits="userSpaceOnUse" x="0" y="0" width="106" height="101">
<g id="a">
<path id="Ret&#195;&#162;ngulo 21" d="M105.997 0H0.00292969V100.531H105.997V0Z" fill="white"/>
</g>
</mask>
<g mask="url(#mask0_103_508)">
<g id="Grupo 27">
<path id="Caminho 31" d="M16.5459 51.7428C14.6771 51.7873 12.8178 51.4627 11.0747 50.7875C10.684 50.5931 10.3836 50.2552 10.2363 49.8445C10.089 49.4338 10.1062 48.982 10.2842 48.5836C10.4622 48.1852 10.7874 47.8711 11.1917 47.7069C11.5959 47.5426 12.048 47.541 12.4535 47.7024C12.7811 47.8422 19.8677 50.7426 29.3803 43.3141C32.3789 40.9592 34.7092 37.8607 36.1397 34.3264C37.5702 30.7921 38.051 26.9451 37.5344 23.1675C36.6578 15.3419 32.3388 8.24501 26.2911 4.42103C25.6859 7.22243 23.7193 11.6169 17.646 15.9379C17.0184 16.3849 16.3662 16.8309 15.6764 17.3024C8.37944 22.2979 -0.701384 28.51 5.40353 44.751C5.54364 45.1664 5.51694 45.62 5.32907 46.0161C5.1412 46.4122 4.80684 46.7199 4.3965 46.8742C3.98616 47.0286 3.53192 47.0175 3.12957 46.8434C2.72722 46.6693 2.40822 46.3457 2.23983 45.941C-4.80194 27.216 6.37509 19.5731 13.772 14.5142C14.4486 14.0519 15.0875 13.6141 15.6906 13.1875C23.7183 7.47246 23.1845 2.14419 23.158 1.92069C23.113 1.61987 23.1509 1.31248 23.2676 1.0316C23.3843 0.750714 23.5754 0.50697 23.8203 0.326591C24.067 0.146039 24.3581 0.0357048 24.6625 0.00731298C24.9669 -0.0210788 25.2733 0.0335329 25.5491 0.165344C33.7645 4.03322 39.7878 12.9161 40.8951 22.7939C41.4808 27.145 40.9181 31.5736 39.2628 35.6399C37.6075 39.7062 34.9172 43.2687 31.4591 45.9736C25.5052 50.6253 20.2331 51.7448 16.5459 51.7448" fill="#004E6F"/>
<path id="Caminho 32" d="M53.5625 89.9522H53.4911C52.3825 89.946 51.295 89.6487 50.3375 89.0901C49.38 88.5315 48.5861 87.7311 48.0352 86.7691L46.1156 83.4574C45.4164 82.246 45.1319 80.8396 45.3052 79.4517L46.483 70.1648C46.5397 69.7066 46.4906 69.2415 46.3395 68.8052C46.1884 68.3689 45.9394 67.9731 45.6114 67.6481L44.2582 66.3142C43.9577 66.0182 43.6873 65.6931 43.4509 65.3437L38.4788 57.9958C37.8741 57.1064 37.505 56.0781 37.4059 55.0072C37.3069 53.9362 37.4811 52.8577 37.9124 51.8725L40.0403 46.9739C40.7153 45.4351 41.9679 44.2231 43.5281 43.5991C45.0882 42.975 46.8311 42.9889 48.3812 43.6377L54.1677 46.087C54.8366 46.3697 55.5852 46.4006 56.2751 46.1737C57.5748 45.7436 58.9682 45.6815 60.3011 45.9942C61.6339 46.3069 62.8543 46.9822 63.8272 47.9454L70.424 54.4473C70.8088 54.827 71.289 55.0957 71.814 55.225L73.1784 55.5607C74.699 55.9355 76.0288 56.856 76.915 58.1471C77.8013 59.4383 78.1821 61.0101 77.9852 62.5637L77.1596 69.0769C77.0281 70.1244 76.6383 71.1227 76.0254 71.9823C75.4124 72.8418 74.5954 73.5355 73.6479 74.001L70.4587 75.5726C69.9466 75.8247 69.5172 76.2177 69.2208 76.7054L65.8223 82.2889C65.032 83.5867 63.8051 84.5603 62.3616 85.0351L60.642 85.6005C59.9612 85.823 59.3822 86.2811 59.0091 86.8926C58.4434 87.8314 57.6436 88.6071 56.6879 89.1438C55.7322 89.6805 54.6535 89.9598 53.5574 89.9542M45.9033 46.5197C45.3171 46.5195 44.7436 46.69 44.2528 47.0104C43.762 47.3308 43.3752 47.7873 43.1397 48.324L41.0118 53.2227C40.8087 53.6862 40.7266 54.1936 40.7732 54.6975C40.8198 55.2014 40.9935 55.6853 41.2782 56.1037L46.2503 63.4516C46.3616 63.6163 46.4891 63.7695 46.6309 63.9088L47.9832 65.2416C48.6802 65.9327 49.2096 66.7743 49.5307 67.7019C49.8518 68.6294 49.9561 69.6183 49.8355 70.5924L48.6578 79.8793C48.5763 80.5325 48.7103 81.1943 49.0394 81.7643L50.9591 85.076C51.2203 85.5266 51.5943 85.9015 52.0442 86.1639C52.4941 86.4263 53.0045 86.5673 53.5254 86.5728C54.0462 86.5784 54.5595 86.4484 55.015 86.1956C55.4704 85.9429 55.8522 85.576 56.1231 85.1311C56.9136 83.8335 58.1404 82.8599 59.5837 82.3848L61.3033 81.8204C61.9841 81.5979 62.5631 81.1398 62.9362 80.5284L66.3346 74.946C66.9647 73.9096 67.8774 73.0744 68.9656 72.5386L72.1548 70.9669C72.6007 70.748 72.9851 70.4216 73.2735 70.0172C73.5619 69.6129 73.7453 69.1431 73.8071 68.6503L74.6327 62.1382C74.7254 61.4072 74.5462 60.6678 74.1293 60.0603C73.7123 59.4529 73.0866 59.02 72.3712 58.8438L71.0067 58.5081C69.8894 58.2338 68.8669 57.663 68.0471 56.8558L61.4503 50.3539C60.9193 49.8275 60.2528 49.4585 59.5249 49.2878C58.797 49.117 58.036 49.1511 57.3263 49.3864C55.8603 49.8681 54.2694 49.8025 52.8481 49.2017L47.0616 46.7575C46.6949 46.6018 46.3006 46.5217 45.9023 46.5217" fill="#004E6F"/>
<path id="Caminho 33" d="M57.7386 100.531C50.6488 100.531 43.646 98.9694 37.2284 95.9563C30.8107 92.9432 25.1358 88.553 20.6074 83.098C16.0789 77.6429 12.8081 71.257 11.0275 64.3944C9.24699 57.5319 9.0005 50.3613 10.3056 43.3926C11.3316 37.8516 13.3297 32.5356 16.2074 27.6905C16.4405 27.3139 16.8121 27.0438 17.2422 26.9383C17.6724 26.8327 18.1268 26.9002 18.5077 27.1261C18.8887 27.352 19.1658 27.7183 19.2796 28.1464C19.3933 28.5744 19.3346 29.03 19.116 29.4152C15.0227 36.3382 12.8629 44.233 12.862 52.2755C12.8726 61.6696 15.8341 70.823 21.3281 78.443C26.8222 86.063 34.5712 91.7646 43.4808 94.7425C52.3904 97.7204 62.0104 97.8241 70.9822 95.0391C79.9539 92.254 87.8241 86.7209 93.4812 79.2211C99.1383 71.7214 102.296 62.6339 102.51 53.2423C102.723 43.8506 99.9802 34.6292 94.6693 26.8805C89.3583 19.1318 81.7473 13.2472 72.9111 10.0579C64.075 6.86866 54.4602 6.5358 45.4246 9.10635C44.3725 9.41252 43.4233 9.71868 42.5304 10.0402C42.3208 10.1198 42.0974 10.1569 41.8734 10.1494C41.6493 10.1419 41.4289 10.0899 41.2251 9.99648C41.0213 9.90303 40.8381 9.76999 40.6862 9.6051C40.5343 9.4402 40.4167 9.24674 40.3402 9.03598C40.2638 8.82521 40.23 8.60134 40.2409 8.3774C40.2517 8.15346 40.307 7.93391 40.4035 7.73153C40.5 7.52915 40.6357 7.34798 40.8029 7.19855C40.9701 7.04913 41.1653 6.93444 41.3771 6.86115C42.3426 6.5111 43.3611 6.18249 44.4929 5.85591C51.1305 3.96254 58.097 3.51493 64.9223 4.5433C71.7476 5.57167 78.273 8.05208 84.058 11.8172C89.843 15.5823 94.7532 20.5444 98.4571 26.3688C102.161 32.1932 104.573 38.7443 105.529 45.5801C106.485 52.4159 105.964 59.3773 104.001 65.9946C102.038 72.6118 98.6781 78.731 94.1485 83.9392C89.6189 89.1474 84.0248 93.3234 77.7438 96.1855C71.4628 99.0475 64.6409 100.53 57.7386 100.531Z" fill="#004E6F"/>
<path id="Caminho 34" d="M95.6019 65.7723C95.3754 65.7732 95.1511 65.7284 94.9422 65.6408C94.7334 65.5531 94.5444 65.4243 94.3864 65.262L86.7323 57.3497C85.7411 56.3278 85.1737 54.9684 85.1443 53.5451L85.0076 47.2391C84.9949 46.718 84.8036 46.2171 84.4656 45.8203C84.1277 45.4235 83.6636 45.1548 83.1512 45.0592L76.3472 43.806C74.9733 43.5546 73.7415 42.8022 72.8906 41.6945L69.9974 37.9328C69.7216 37.5713 69.3428 37.3017 68.911 37.1595C68.4791 37.0172 68.0143 37.0089 67.5777 37.1357L63.6506 38.2583C62.7887 38.5042 61.8806 38.5419 61.0013 38.3682C60.122 38.1945 59.2965 37.8144 58.5928 37.2592L55.5209 34.8303C54.7945 34.2558 54.2205 33.5116 53.8495 32.6631C53.4785 31.8146 53.3218 30.8878 53.3933 29.9645C53.4648 29.0412 53.7622 28.1496 54.2594 27.3683C54.7566 26.587 55.4383 25.9399 56.2445 25.4841C56.673 25.2413 57.0116 24.8665 57.2099 24.4156L59.4694 19.2517C59.9086 18.2486 60.6299 17.3947 61.5454 16.7939C62.4609 16.1931 63.5312 15.8713 64.6262 15.8675L72.9672 15.843C73.4157 15.8417 73.8463 16.0185 74.1644 16.3347C74.4825 16.6509 74.662 17.0805 74.6633 17.529C74.6647 17.9775 74.4878 18.4081 74.1716 18.7262C73.8555 19.0443 73.4259 19.2238 72.9774 19.2251L64.6354 19.2496C64.196 19.251 63.7665 19.38 63.3991 19.621C63.0317 19.862 62.7422 20.2045 62.5658 20.6069L60.3063 25.7719C59.8141 26.891 58.9741 27.8216 57.911 28.4253C57.5867 28.6076 57.3122 28.867 57.1119 29.1805C56.9115 29.494 56.7915 29.852 56.7623 30.2229C56.7332 30.5938 56.7958 30.9662 56.9447 31.3072C57.0936 31.6481 57.3242 31.9472 57.6161 32.1779L60.6879 34.6068C60.9702 34.8295 61.3013 34.982 61.6541 35.0517C62.0068 35.1214 62.371 35.1064 62.7168 35.0079L66.6439 33.8853C67.7322 33.5694 68.8906 33.59 69.9671 33.9444C71.0435 34.2988 71.9876 34.9705 72.6753 35.8713L75.5686 39.633C75.91 40.0774 76.4042 40.3792 76.9555 40.4801L83.7554 41.7282C85.0322 41.9666 86.1884 42.6362 87.0305 43.6251C87.8726 44.614 88.3495 45.8621 88.3815 47.1605L88.5183 53.4675C88.5287 54.0401 88.7563 54.5873 89.1551 54.9983L96.8092 62.9106C97.04 63.1493 97.1954 63.4505 97.2562 63.7769C97.3169 64.1033 97.2803 64.4403 97.1508 64.746C97.0213 65.0516 96.8047 65.3124 96.528 65.4958C96.2513 65.6792 95.9267 65.7772 95.5947 65.7774" fill="#004E6F"/>
</g>
</g>
</g>
</g>
<defs>
<clipPath id="clip0_103_508">
<rect width="105.994" height="100.53" fill="white" transform="translate(0.00292969)"/>
</clipPath>
</defs>
</svg>
