<svg width="100" height="100" viewBox="0 0 100 100" fill="none" xmlns="http://www.w3.org/2000/svg">
<g id="icon-foundation-voluntary.svg" clip-path="url(#clip0_5_150)">
<g id="Clip path group">
<mask id="mask0_5_150" style="mask-type:luminance" maskUnits="userSpaceOnUse" x="0" y="0" width="100" height="100">
<g id="a">
<path id="Ret&#195;&#162;ngulo 27" d="M100 0H0V100H100V0Z" fill="white"/>
</g>
</mask>
<g mask="url(#mask0_5_150)">
<g id="Grupo 29">
<path id="Caminho 35" d="M36.1656 70.2129V65.9578C37.8246 65.8545 39.3887 65.1488 40.564 63.9735C41.7394 62.7982 42.445 61.234 42.5483 59.5751V40.4259C42.5483 35.5694 30.9309 31.9156 23.3992 31.9156C15.8674 31.9156 4.25514 35.5694 4.25514 40.4259V59.5751C4.35846 61.234 5.06409 62.7982 6.23943 63.9735C7.41477 65.1488 8.97889 65.8545 10.6379 65.9578V70.2129C7.8496 70.1092 5.20365 68.9552 3.23069 66.9822C1.25774 65.0093 0.103683 62.3633 0 59.5751L0 40.4259C0 31.5147 15.4995 27.6594 23.4043 27.6594C31.3091 27.6594 46.8086 31.5147 46.8086 40.4259V59.5751C46.7062 62.3651 45.5519 65.013 43.5778 66.9872C41.6036 68.9614 38.9556 70.1156 36.1656 70.2181" fill="#004E6F"/>
<path id="Caminho 36" d="M61.7027 74.4681V70.213C64.3531 70.213 68.0854 68.8924 68.0854 65.9578V46.8086C68.0854 41.9521 57.7596 38.2984 51.0638 38.2984C50.4666 38.2984 49.8187 38.3304 49.1336 38.3955L48.7368 34.1589C49.5635 34.0825 50.3436 34.0432 51.0638 34.0432C58.2504 34.0432 72.3406 37.8985 72.3406 46.8097V65.9588C72.3406 71.487 66.8641 74.4691 61.6975 74.4691" fill="#004E6F"/>
<path id="Caminho 37" d="M23.4042 25.5318C21.9932 25.5811 20.5872 25.3396 19.2736 24.8222C17.96 24.3048 16.767 23.5226 15.7686 22.5243C14.7703 21.526 13.9882 20.3329 13.4708 19.0193C12.9534 17.7057 12.7118 16.2997 12.7612 14.8888V10.6388C12.7125 9.22824 12.9546 7.82279 13.4723 6.5098C13.9901 5.19682 14.7724 4.00438 15.7706 3.00663C16.7688 2.00889 17.9616 1.22717 19.2749 0.710083C20.5881 0.192999 21.9937 -0.0483928 23.4042 0.000917566C24.8152 -0.0484332 26.2212 0.193104 27.5348 0.710502C28.8484 1.2279 30.0414 2.01009 31.0397 3.00839C32.0381 4.0067 32.8202 5.19977 33.3376 6.51337C33.855 7.82697 34.0966 9.23298 34.0472 10.6439V14.8991C34.0966 16.31 33.855 17.7161 33.3376 19.0297C32.8202 20.3433 32.0381 21.5363 31.0397 22.5346C30.0414 23.5329 28.8484 24.3151 27.5348 24.8325C26.2212 25.3499 24.8152 25.5915 23.4042 25.5421M23.4042 4.26536C22.5531 4.21597 21.7012 4.34723 20.9044 4.65051C20.1076 4.9538 19.384 5.42226 18.7812 6.02509C18.1784 6.62793 17.7099 7.3515 17.4066 8.14827C17.1033 8.94504 16.9721 9.79697 17.0215 10.6481V14.9032C16.9721 15.7543 17.1033 16.6063 17.4066 17.403C17.7099 18.1998 18.1784 18.9234 18.7812 19.5262C19.384 20.129 20.1076 20.5975 20.9044 20.9008C21.7012 21.2041 22.5531 21.3353 23.4042 21.2859C24.2553 21.3353 25.1072 21.2041 25.904 20.9008C26.7008 20.5975 27.4243 20.129 28.0272 19.5262C28.63 18.9234 29.0985 18.1998 29.4018 17.403C29.705 16.6063 29.8363 15.7543 29.7869 14.9032V10.6388C29.8363 9.78767 29.705 8.93574 29.4018 8.13897C29.0985 7.3422 28.63 6.61863 28.0272 6.01579C27.4243 5.41296 26.7008 4.9445 25.904 4.64121C25.1072 4.33793 24.2553 4.20667 23.4042 4.25606" fill="#004E6F"/>
<path id="Ret&#195;&#162;ngulo 22" d="M63.8294 51.0637H59.5742V99.9999H63.8294V51.0637Z" fill="#004E6F"/>
<path id="Caminho 38" d="M89.3613 82.9793V78.7241C92.0117 78.7241 95.744 77.4036 95.744 74.469V55.3198C95.744 50.4633 85.4182 46.8095 78.7224 46.8095C77.412 46.8236 76.1049 46.9422 74.8134 47.1639L74.1211 42.9646C75.6414 42.7048 77.1801 42.5666 78.7224 42.5513C85.909 42.5513 99.9991 46.4065 99.9991 55.3177V74.4669C99.9991 79.9951 94.5226 82.9772 89.3561 82.9772" fill="#004E6F"/>
<path id="Ret&#195;&#162;ngulo 23" d="M91.4895 59.574H87.2344V99.9999H91.4895V59.574Z" fill="#004E6F"/>
<path id="Ret&#195;&#162;ngulo 24" d="M38.2971 44.6812H34.042V100H38.2971V44.6812Z" fill="#004E6F"/>
<path id="Ret&#195;&#162;ngulo 25" d="M12.7654 44.6812H8.51025V100H12.7654V44.6812Z" fill="#004E6F"/>
<path id="Ret&#195;&#162;ngulo 26" d="M25.532 65.9578H21.2769V99.9999H25.532V65.9578Z" fill="#004E6F"/>
<path id="Caminho 39" d="M51.0639 31.9146C49.6529 31.9639 48.2469 31.7224 46.9333 31.205C45.6197 30.6876 44.4266 29.9054 43.4283 28.9071C42.43 27.9088 41.6478 26.7157 41.1304 25.4021C40.613 24.0885 40.3715 22.6825 40.4208 21.2715V17.0216C40.3787 15.598 40.6228 14.1806 41.1385 12.8531C41.6541 11.5256 42.431 10.3151 43.423 9.29329C44.4151 8.27149 45.6021 7.45919 46.9138 6.90448C48.2254 6.34978 49.6351 6.06396 51.0592 6.06396C52.4834 6.06396 53.893 6.34978 55.2047 6.90448C56.5163 7.45919 57.7034 8.27149 58.6954 9.29329C59.6874 10.3151 60.4643 11.5256 60.98 12.8531C61.4957 14.1806 61.7397 15.598 61.6976 17.0216V21.2767C61.7469 22.6877 61.5054 24.0937 60.988 25.4073C60.4706 26.7209 59.6884 27.9139 58.6901 28.9123C57.6918 29.9106 56.4987 30.6927 55.1851 31.2101C53.8715 31.7275 52.4655 31.9691 51.0546 31.9197M51.0546 10.643C50.2035 10.5936 49.3515 10.7248 48.5548 11.0281C47.758 11.3314 47.0344 11.7999 46.4316 12.4027C45.8287 13.0055 45.3603 13.7291 45.057 14.5259C44.7537 15.3227 44.6225 16.1746 44.6718 17.0257V21.2767C44.6718 22.9696 45.3444 24.5932 46.5414 25.7903C47.7385 26.9874 49.3621 27.6599 51.0551 27.6599C52.748 27.6599 54.3716 26.9874 55.5687 25.7903C56.7658 24.5932 57.4383 22.9696 57.4383 21.2767V17.0216C57.4877 16.1705 57.3564 15.3185 57.0532 14.5218C56.7499 13.725 56.2814 13.0014 55.6786 12.3986C55.0757 11.7957 54.3522 11.3273 53.5554 11.024C52.7586 10.7207 51.9067 10.5895 51.0556 10.6388" fill="#004E6F"/>
<path id="Caminho 40" d="M80.851 40.4258C79.44 40.4751 78.034 40.2336 76.7204 39.7162C75.4068 39.1988 74.2137 38.4166 73.2154 37.4183C72.2171 36.42 71.4349 35.2269 70.9175 33.9133C70.4001 32.5997 70.1586 31.1937 70.2079 29.7828V25.5328C70.1659 24.1093 70.4099 22.6918 70.9256 21.3643C71.4413 20.0368 72.2181 18.8263 73.2102 17.8045C74.2022 16.7827 75.3892 15.9704 76.7009 15.4157C78.0125 14.861 79.4222 14.5752 80.8463 14.5752C82.2705 14.5752 83.6801 14.861 84.9918 15.4157C86.3035 15.9704 87.4905 16.7827 88.4825 17.8045C89.4745 18.8263 90.2514 20.0368 90.7671 21.3643C91.2828 22.6918 91.5268 24.1093 91.4847 25.5328V29.7879C91.5341 31.1989 91.2925 32.6049 90.7751 33.9185C90.2577 35.2321 89.4755 36.4252 88.4772 37.4235C87.4789 38.4218 86.2858 39.204 84.9722 39.7214C83.6586 40.2388 82.2526 40.4803 80.8417 40.431M80.8417 19.1542C79.9906 19.1048 79.1386 19.2361 78.3419 19.5394C77.5451 19.8427 76.8215 20.3111 76.2187 20.9139C75.6159 21.5168 75.1474 22.2404 74.8441 23.0371C74.5408 23.8339 74.4096 24.6858 74.459 25.5369V29.7921C74.459 31.485 75.1315 33.1086 76.3286 34.3057C77.5256 35.5028 79.1493 36.1753 80.8422 36.1753C82.5351 36.1753 84.1587 35.5028 85.3558 34.3057C86.5529 33.1086 87.2254 31.485 87.2254 29.7921V25.5328C87.2748 24.6817 87.1436 23.8298 86.8403 23.033C86.537 22.2362 86.0685 21.5126 85.4657 20.9098C84.8628 20.307 84.1393 19.8385 83.3425 19.5352C82.5457 19.2319 81.6938 19.1007 80.8427 19.1501" fill="#004E6F"/>
</g>
</g>
</g>
</g>
<defs>
<clipPath id="clip0_5_150">
<rect width="100" height="100" fill="white"/>
</clipPath>
</defs>
</svg>
