<svg width="100" height="109" viewBox="0 0 100 109" fill="none" xmlns="http://www.w3.org/2000/svg">
<g id="icon-foundation-tree.svg" clip-path="url(#clip0_5_132)">
<g id="Clip path group">
<mask id="mask0_5_132" style="mask-type:luminance" maskUnits="userSpaceOnUse" x="0" y="0" width="100" height="109">
<g id="a">
<path id="Ret&#195;&#162;ngulo 20" d="M99.9953 0H0.00488281V108.05H99.9953V0Z" fill="white"/>
</g>
</mask>
<g mask="url(#mask0_5_132)">
<g id="Grupo 25">
<path id="Caminho 22" d="M75.9492 44.764C72.663 44.8831 69.4255 43.9426 66.7146 42.0814C66.4015 41.8318 66.2005 41.4681 66.1556 41.0702C66.1107 40.6724 66.2257 40.273 66.4753 39.96C66.7249 39.6469 67.0886 39.4458 67.4864 39.401C67.8843 39.3561 68.2837 39.4711 68.5967 39.7207C68.8607 39.9256 74.5296 44.1663 84.761 39.7293C87.9881 38.3207 90.7905 36.0925 92.8901 33.266C94.9897 30.4394 96.3134 27.1128 96.7297 23.6165C97.2616 20.1566 97.0221 16.6219 96.0283 13.2654C95.0346 9.90885 93.3112 6.81349 90.9814 4.20082C89.815 6.55079 87.0605 10.0446 80.5976 12.5105C79.9345 12.7637 79.2499 13.0105 78.5256 13.2713C70.8458 16.0397 61.2871 19.4852 62.975 35.4242C62.9962 35.6215 62.9783 35.821 62.9223 36.0113C62.8663 36.2017 62.7734 36.3792 62.6488 36.5336C62.5243 36.6881 62.3705 36.8165 62.1964 36.9115C62.0222 37.0065 61.831 37.0663 61.6337 37.0874C61.4365 37.1086 61.2369 37.0906 61.0466 37.0347C60.8562 36.9787 60.6788 36.8858 60.5243 36.7612C60.3699 36.6367 60.2415 36.4829 60.1465 36.3088C60.0514 36.1346 59.9917 35.9434 59.9705 35.7461C58.0369 17.4529 69.7502 13.2305 77.4965 10.4363C78.208 10.1798 78.8797 9.93838 79.5171 9.6948C88.0317 6.4467 88.7903 1.53968 88.8182 1.33473C88.8478 1.06407 88.9508 0.806646 89.1161 0.59029C89.2814 0.373933 89.5027 0.206872 89.756 0.107166C90.0097 0.00632891 90.2861 -0.0237733 90.5555 0.0200678C90.825 0.0639089 91.0775 0.18005 91.2862 0.356112C97.7051 5.69772 101.014 14.9978 99.7171 24.0478C99.2337 28.0568 97.7098 31.8696 95.2967 35.1074C92.8836 38.3451 89.6654 40.8952 85.9618 42.5041C82.8157 43.9399 79.4069 44.71 75.9492 44.7661" fill="#004E6F"/>
<path id="Caminho 23" d="M60.7066 57.2982C60.4831 57.2982 60.2624 57.2487 60.0603 57.1531C59.8583 57.0575 59.68 56.9182 59.5383 56.7453C59.3966 56.5724 59.2951 56.3703 59.2411 56.1534C59.187 55.9365 59.1818 55.7103 59.2258 55.4911C63.3302 35.1377 76.9504 29.3389 77.5287 29.1029C77.7133 29.0198 77.9126 28.9747 78.115 28.9703C78.3173 28.9659 78.5184 29.0022 78.7064 29.0772C78.8944 29.1521 79.0654 29.2641 79.2093 29.4064C79.3531 29.5488 79.4668 29.7187 79.5436 29.9059C79.6205 30.0931 79.6588 30.2939 79.6565 30.4962C79.6541 30.6986 79.6111 30.8984 79.5299 31.0838C79.4487 31.2692 79.3311 31.4363 79.184 31.5753C79.0369 31.7143 78.8633 31.8223 78.6736 31.8928C78.547 31.9443 65.9731 37.2988 62.1842 56.0856C62.1152 56.4268 61.9304 56.7336 61.6612 56.9542C61.3919 57.1747 61.0547 57.2955 60.7066 57.296" fill="#004E6F"/>
<path id="Caminho 24" d="M41.3008 50.8041C40.247 50.8018 39.1947 50.7261 38.1514 50.5777C35.0784 50.1475 32.1713 48.9209 29.719 47.0197C27.2666 45.1185 25.3542 42.6088 24.1718 39.74C21.3583 33.3178 21.9055 25.769 25.5539 20.4928C25.7084 20.2619 25.9235 20.0781 26.1756 19.9613C26.4277 19.8445 26.7071 19.7993 26.9832 19.8307C27.2532 19.8619 27.5093 19.9675 27.7229 20.1358C27.9364 20.304 28.099 20.5283 28.1925 20.7836C28.3159 21.0486 29.8836 24.1358 36.3079 24.741C37.2425 24.829 38.263 24.8376 39.3446 24.8483C45.3429 24.9009 53.5571 24.9728 56.0615 40.0179C56.1273 40.4126 56.0335 40.8173 55.8009 41.1429C55.5683 41.4685 55.2158 41.6883 54.8211 41.7541C54.4264 41.8198 54.0217 41.7261 53.6961 41.4934C53.3705 41.2608 53.1507 40.9084 53.0849 40.5136C50.9968 27.9687 45.3236 27.9183 39.3178 27.8657C38.1707 27.856 37.088 27.8464 36.0246 27.7466C31.1788 27.2905 28.435 25.5383 26.952 24.0703C25.9251 26.3412 25.3922 28.8044 25.3887 31.2967C25.3852 33.789 25.9111 36.2536 26.9317 38.5274C27.912 40.9211 29.5015 43.0167 31.5421 44.6061C33.5828 46.1956 36.0037 47.2236 38.5645 47.5882C46.769 48.7331 49.9001 44.53 49.9312 44.4871C50.0464 44.3248 50.1925 44.1869 50.3612 44.0814C50.5299 43.9758 50.7178 43.9046 50.9141 43.872C51.1104 43.8393 51.3112 43.8458 51.505 43.8911C51.6988 43.9364 51.8817 44.0196 52.0431 44.1359C52.2046 44.2521 52.3415 44.3992 52.4459 44.5686C52.5504 44.738 52.6202 44.9264 52.6515 45.1229C52.6828 45.3194 52.675 45.5202 52.6283 45.7136C52.5817 45.9071 52.4973 46.0894 52.3799 46.2501C52.2297 46.4583 49.0009 50.803 41.2965 50.803" fill="#004E6F"/>
<path id="Caminho 25" d="M60.1764 57.2618C59.8412 57.2615 59.5156 57.1497 59.251 56.9439C58.9864 56.7382 58.7978 56.4503 58.7149 56.1255C56.396 47.0196 42.1965 41.6673 40.7403 41.384C40.3469 41.3112 39.9985 41.085 39.7718 40.7553C39.5451 40.4256 39.4587 40.0193 39.5316 39.6258C39.6044 39.2324 39.8306 38.884 40.1603 38.6573C40.49 38.4306 40.8963 38.3442 41.2898 38.4171C43.0066 38.739 58.878 44.542 61.6389 55.3808C61.6955 55.6036 61.7004 55.8364 61.6532 56.0615C61.6061 56.2865 61.5083 56.4978 61.3671 56.6792C61.2259 56.8607 61.0451 57.0075 60.8386 57.1084C60.6321 57.2094 60.4052 57.2619 60.1753 57.2618" fill="#004E6F"/>
<path id="Caminho 26" d="M79.1275 69.7402C78.7855 69.7418 78.4531 69.6266 78.1855 69.4138C77.9178 69.2009 77.7307 68.9031 77.6552 68.5695C75.6787 61.9671 67.3766 57.1834 57.8716 57.1834C51.1447 57.1834 44.8727 59.5688 41.0924 63.5627C40.8173 63.8534 40.4381 64.0229 40.038 64.034C39.638 64.0451 39.2499 63.8968 38.9592 63.6217C38.6685 63.3466 38.499 62.9674 38.4879 62.5673C38.4768 62.1673 38.6251 61.7792 38.9002 61.4885C43.2395 56.9034 50.3313 54.1661 57.8716 54.1661C62.968 54.1182 67.985 55.4298 72.4059 57.9657C76.27 60.1013 79.1872 63.6147 80.5761 67.8055C80.6408 68.0303 80.6525 68.2671 80.6102 68.4973C80.568 68.7274 80.4729 68.9446 80.3325 69.1318C80.1921 69.319 80.0102 69.471 79.8011 69.576C79.592 69.6811 79.3614 69.7361 79.1275 69.737" fill="#004E6F"/>
<path id="Caminho 27" d="M24.411 108.05C24.3605 108.05 24.3101 108.05 24.2597 108.042C24.0611 108.022 23.8686 107.963 23.693 107.868C23.5175 107.774 23.3625 107.645 23.237 107.49L0.340472 79.169C0.0908769 78.8597 -0.0265888 78.4644 0.013595 78.069C0.0537787 77.6736 0.248366 77.31 0.55508 77.0572L10.4603 68.8796C10.6141 68.7525 10.7916 68.6572 10.9824 68.5992C11.1733 68.5411 11.3738 68.5215 11.5723 68.5415C11.7707 68.5615 11.9633 68.6206 12.1388 68.7155C12.3143 68.8103 12.4692 68.9391 12.5946 69.0942L35.4923 97.415C35.7419 97.7243 35.8593 98.1196 35.8191 98.515C35.779 98.9104 35.5844 99.274 35.2777 99.5268L25.3724 107.705C25.1007 107.93 24.759 108.052 24.4067 108.051M3.62184 78.435L24.6213 104.409L32.1991 98.1522L11.204 72.1792L3.62184 78.435Z" fill="#004E6F"/>
<path id="Caminho 28" d="M63.0264 79.6272H46.9447C46.5446 79.6272 46.1609 79.4682 45.8779 79.1853C45.595 78.9024 45.436 78.5186 45.436 78.1185C45.436 77.7184 45.595 77.3346 45.8779 77.0517C46.1609 76.7688 46.5446 76.6098 46.9447 76.6098H63.0264C64.1184 76.6098 65.1656 76.176 65.9378 75.4039C66.7099 74.6317 67.1437 73.5845 67.1437 72.4925C67.1437 71.4006 66.7099 70.3533 65.9378 69.5812C65.1656 68.809 64.1184 68.3753 63.0264 68.3753H54.6213C52.6101 68.3802 50.6501 67.7409 49.0286 66.5511L47.3643 65.3482C47.2978 65.2999 47.2291 65.2538 47.1647 65.2141L47.1314 65.1915C46.2021 64.5618 45.1216 64.1914 44.0014 64.1185H43.966C43.8265 64.1067 43.6859 64.1003 43.5453 64.1003H32.9415C31.6189 64.0992 30.3276 64.5024 29.2406 65.2559L15.6398 74.6912C15.477 74.8077 15.2927 74.8906 15.0976 74.9352C14.9025 74.9798 14.7005 74.9851 14.5033 74.9508C14.3061 74.9166 14.1177 74.8434 13.9491 74.7356C13.7804 74.6278 13.6349 74.4875 13.521 74.323C13.4071 74.1584 13.3271 73.9728 13.2857 73.777C13.2442 73.5812 13.2421 73.3791 13.2795 73.1824C13.3169 72.9858 13.3931 72.7986 13.5035 72.6317C13.614 72.4648 13.7566 72.3216 13.9229 72.2103L27.5259 62.774C29.1169 61.6705 31.0074 61.08 32.9437 61.0818H43.5475C43.7685 61.0818 43.9928 61.0914 44.2128 61.1097C45.8557 61.219 47.4406 61.761 48.8065 62.6806C48.9138 62.7493 49.0297 62.8276 49.1359 62.9049L50.8045 64.111C51.911 64.9253 53.2495 65.3635 54.6234 65.3611H63.0286C64.894 65.3561 66.6857 66.089 68.0128 67.3999C69.0269 68.3905 69.7227 69.6609 70.0114 71.0488C70.3001 72.4368 70.1686 73.8792 69.6337 75.192C69.0987 76.5049 68.1847 77.6285 67.0082 78.4195C65.8317 79.2104 64.4462 79.6327 63.0286 79.6326" fill="#004E6F"/>
<path id="Caminho 29" d="M31.6273 95.475C31.2315 95.4768 30.8508 95.323 30.5674 95.0467C30.284 94.7704 30.1205 94.3937 30.1121 93.998C30.1038 93.6023 30.2514 93.2191 30.523 92.9311C30.7946 92.6432 31.1685 92.4735 31.564 92.4587L64.559 91.0637C67.3444 90.9474 70.0368 90.0281 72.3117 88.4166L82.0475 81.5287C83.7318 80.3398 85.141 78.8028 86.1797 77.0219L95.0216 61.9317C94.1597 61.4927 93.2102 61.2528 92.2432 61.2296C91.2762 61.2064 90.3163 61.4005 89.4343 61.7976L89.3356 61.8416C86.9544 62.9077 84.9054 64.5972 83.4049 66.7314L82.3425 68.2433C81.0762 70.0416 79.2269 71.3464 77.1082 71.9368L69.1259 74.1526C68.7403 74.2596 68.3279 74.209 67.9796 74.012C67.6313 73.815 67.3755 73.4877 67.2685 73.1021C67.1614 72.7165 67.212 72.3041 67.409 71.9558C67.606 71.6075 67.9333 71.3517 68.3189 71.2447L76.3013 69.0288C77.7477 68.6263 79.0102 67.7357 79.8746 66.5083L80.9369 64.9963C82.7501 62.4175 85.2257 60.376 88.1026 59.0871L88.2014 59.0431C89.7863 58.33 91.5368 58.0664 93.2614 58.2812C94.9861 58.496 96.6184 59.1809 97.98 60.261C98.2667 60.4872 98.4623 60.8091 98.5311 61.1677C98.5998 61.5263 98.5372 61.8977 98.3545 62.2139L88.784 78.5478C87.5283 80.6977 85.8256 82.5529 83.7912 83.9881L74.0554 90.876C71.3067 92.8233 68.0535 93.9341 64.6878 94.0747L31.6928 95.4697H31.6273" fill="#004E6F"/>
<path id="Caminho 30" d="M23.6397 97.358C23.3152 97.358 22.998 97.2618 22.7282 97.0815C22.4584 96.9013 22.2481 96.645 22.1239 96.3452C21.9997 96.0454 21.9672 95.7155 22.0305 95.3973C22.0939 95.079 22.2501 94.7867 22.4796 94.5572C22.709 94.3277 23.0014 94.1715 23.3196 94.1082C23.6379 94.0449 23.9678 94.0774 24.2676 94.2016C24.5674 94.3258 24.8236 94.536 25.0039 94.8058C25.1842 95.0757 25.2804 95.3929 25.2804 95.7173C25.2798 96.1523 25.1068 96.5693 24.7992 96.8769C24.4916 97.1844 24.0747 97.3575 23.6397 97.358ZM23.6397 94.3406C23.3674 94.3406 23.1012 94.4214 22.8748 94.5727C22.6484 94.7239 22.472 94.9389 22.3678 95.1905C22.2636 95.442 22.2363 95.7189 22.2894 95.9859C22.3426 96.253 22.4737 96.4983 22.6662 96.6908C22.8588 96.8834 23.1041 97.0145 23.3711 97.0676C23.6382 97.1207 23.915 97.0935 24.1666 96.9893C24.4181 96.8851 24.6331 96.7086 24.7844 96.4822C24.9357 96.2558 25.0164 95.9896 25.0164 95.7173C25.0161 95.3523 24.871 95.0023 24.6129 94.7442C24.3548 94.4861 24.0047 94.3409 23.6397 94.3406Z" fill="#004E6F"/>
</g>
</g>
</g>
</g>
<defs>
<clipPath id="clip0_5_132">
<rect width="99.9904" height="108.05" fill="white" transform="translate(0.00488281)"/>
</clipPath>
</defs>
</svg>
