<svg width="101" height="105" viewBox="0 0 101 105" fill="none" xmlns="http://www.w3.org/2000/svg">
<g id="icon-foundation-park.svg" clip-path="url(#clip0_5_170)">
<g id="Clip path group">
<mask id="mask0_5_170" style="mask-type:luminance" maskUnits="userSpaceOnUse" x="0" y="0" width="101" height="105">
<g id="a">
<path id="Ret&#195;&#162;ngulo 31" d="M100.496 0H0.503418V104.33H100.496V0Z" fill="white"/>
</g>
</mask>
<g mask="url(#mask0_5_170)">
<g id="Grupo 31">
<path id="Caminho 41" d="M36.8204 88.4767L33.7466 85.4029L34.0187 85.1167C34.6957 84.2911 35.5548 83.6336 36.5286 83.1957C37.5023 82.7579 38.5643 82.5516 39.6312 82.5931H69.8515C72.3208 81.5638 83.3398 70.8972 85.8322 68.1036C89.4807 63.216 92.7669 58.0682 95.6643 52.7012C93.9512 51.8306 91.9784 51.618 90.1192 52.1037C87.3004 52.7584 85.3994 54.7397 82.8669 59.6743C82.6607 60.0754 82.3351 60.4024 81.935 60.6103L71.9693 65.7849L69.9609 61.9257L79.317 57.0674C81.8978 52.181 84.5097 48.9425 89.132 47.868C94.2374 46.682 98.3757 48.59 100.064 50.8635C100.29 51.1684 100.433 51.5273 100.478 51.9046C100.522 52.2819 100.467 52.6642 100.318 53.0135C98.1979 57.9712 90.7779 69.0806 89.0708 70.9956C88.9282 71.1543 74.1163 86.9393 70.0583 86.9393H39.6312C39.1624 86.9004 38.6917 86.9849 38.2657 87.1843C37.8398 87.3837 37.4734 87.6912 37.203 88.076L36.8204 88.4767Z" fill="#004E6F"/>
<path id="Caminho 42" d="M65.7161 73.8967H48.3264V69.5495H65.7161C68.7187 69.5495 70.0633 67.9117 70.0633 66.2889C70.0633 64.6661 68.7187 63.0283 65.7161 63.0283H54.2311C52.6937 63.0283 51.331 61.9859 49.7564 60.7789C48.6648 59.9434 47.017 58.6801 46.1533 58.6801H35.2839C33.2012 58.6801 30.0782 60.573 28.0708 62.4448L19.4347 71.0809L16.3608 68.0071L25.0562 59.3117C27.5526 56.983 31.6839 54.3269 35.2879 54.3269H46.1523C48.4891 54.3269 50.5708 55.9176 52.3984 57.3214C53.0222 57.8461 53.6975 58.3064 54.4139 58.6952L65.7161 58.6751C71.424 58.6751 74.4114 62.5021 74.4114 66.2829C74.4114 70.0637 71.425 73.8907 65.7161 73.8907" fill="#004E6F"/>
<path id="Caminho 43" d="M28.7627 104.33C28.4771 104.33 28.1942 104.274 27.9304 104.165C27.6666 104.056 27.4269 103.895 27.2252 103.693L1.14022 77.6072C0.938335 77.4054 0.778186 77.1658 0.668921 76.9021C0.559657 76.6383 0.503418 76.3557 0.503418 76.0702C0.503418 75.7848 0.559657 75.5022 0.668921 75.2384C0.778186 74.9747 0.938335 74.7351 1.14022 74.5333L12.0086 63.6639C12.2104 63.462 12.45 63.3019 12.7138 63.1926C12.9775 63.0833 13.2601 63.0271 13.5456 63.0271C13.831 63.0271 14.1137 63.0833 14.3774 63.1926C14.6411 63.3019 14.8807 63.462 15.0825 63.6639L41.1675 89.7489C41.3694 89.9507 41.5295 90.1903 41.6388 90.454C41.7481 90.7177 41.8043 91.0004 41.8043 91.2858C41.8043 91.5713 41.7481 91.8539 41.6388 92.1176C41.5295 92.3813 41.3694 92.621 41.1675 92.8228L30.2991 103.689C30.0975 103.891 29.858 104.052 29.5944 104.161C29.3307 104.27 29.0481 104.326 28.7627 104.326M5.75149 76.0738L28.7627 99.0849L36.5542 91.2874L13.5461 68.2762L5.75149 76.0738Z" fill="#004E6F"/>
<path id="Ret&#195;&#162;ngulo 28" d="M15.0837 74.5333L12.0098 77.6072L16.3576 81.955L19.4315 78.8811L15.0837 74.5333Z" fill="#004E6F"/>
<path id="Caminho 44" d="M89.2957 51.3425L85.0269 50.5201C85.1988 49.61 85.2839 48.6857 85.2809 47.7596C85.2809 37.4404 79.0097 27.8182 66.644 19.16L69.1385 15.5981C82.5435 24.9844 89.6241 36.1059 89.6241 47.7596C89.6269 48.9614 89.5156 50.1607 89.2917 51.3415" fill="#004E6F"/>
<path id="Caminho 45" d="M38.373 57.7794C36.3004 54.8547 35.218 51.3436 35.2841 47.7595C35.2841 36.1048 42.3697 24.9844 55.7697 15.5981L58.2641 19.16C45.8975 27.8182 39.6273 37.4364 39.6273 47.7595C39.5675 50.432 40.3634 53.0536 41.8988 55.2418L38.373 57.7794Z" fill="#004E6F"/>
<path id="Caminho 46" d="M62.4562 20.8621C62.401 20.8621 56.8187 20.7677 55.2712 18.668L55.1075 18.4099C48.2479 5.68571 48.4075 5.39851 49.0824 4.18845C52.3751 -1.72626 59.5441 0.0863112 62.9935 0.959962C68.4905 2.35077 70.8403 2.23529 72.1016 2.17102L74.5729 2.07663L74.7074 4.18544C74.7988 5.62948 73.1801 10.3492 69.8963 18.2131L69.7126 18.5615C68.2344 20.833 62.6912 20.8591 62.4562 20.8591M58.6925 15.8914C59.9134 16.2668 61.1794 16.4752 62.4562 16.511C63.6978 16.488 64.9311 16.3027 66.1246 15.9596C67.5124 12.6107 68.9584 8.87203 69.7547 6.50915C67.1096 6.31184 64.4892 5.86329 61.929 5.16955C57.1521 3.96452 54.741 4.03983 53.3934 5.57123C54.2218 7.4049 56.5184 11.8414 58.6965 15.8934" fill="#004E6F"/>
<path id="Caminho 47" d="M63.5418 54.3331H59.1946C57.4655 54.3315 55.8078 53.6439 54.5851 52.4213C53.3625 51.1986 52.6749 49.5409 52.6733 47.8118V45.6377H57.0205V47.8118C57.0211 48.3882 57.2503 48.9409 57.6579 49.3485C58.0655 49.7561 58.6182 49.9854 59.1946 49.9859H63.5418C64.1182 49.9854 64.6709 49.7561 65.0785 49.3485C65.4861 48.9409 65.7153 48.3882 65.7159 47.8118V46.5977C65.7163 46.1415 65.5729 45.6967 65.3061 45.3266C65.0393 44.9565 64.6626 44.6799 64.2296 44.5361L57.131 42.1702C55.8322 41.7379 54.7026 40.9076 53.9025 39.7971C53.1023 38.6865 52.6723 37.3522 52.6733 35.9834V34.7693C52.6749 33.0402 53.3625 31.3825 54.5851 30.1598C55.8078 28.9372 57.4655 28.2496 59.1946 28.248H63.5418C65.2708 28.2496 66.9286 28.9372 68.1512 30.1598C69.3739 31.3825 70.0614 33.0402 70.063 34.7693V36.9434H65.7159V34.7693C65.7153 34.1929 65.4861 33.6402 65.0785 33.2326C64.6709 32.825 64.1182 32.5957 63.5418 32.5952H59.1946C58.6182 32.5957 58.0655 32.825 57.6579 33.2326C57.2503 33.6402 57.0211 34.1929 57.0205 34.7693V35.9834C57.02 36.4398 57.1633 36.8847 57.4301 37.255C57.6969 37.6252 58.0736 37.902 58.5067 38.046L65.6044 40.4119C66.9034 40.8435 68.0333 41.6735 68.8337 42.784C69.6341 43.8945 70.0643 45.2289 70.063 46.5977V47.8118C70.0614 49.5409 69.3739 51.1986 68.1512 52.4213C66.9286 53.6439 65.2708 54.3315 63.5418 54.3331Z" fill="#004E6F"/>
<path id="Ret&#195;&#162;ngulo 29" d="M63.542 26.074H59.1948V30.4211H63.542V26.074Z" fill="#004E6F"/>
<path id="Ret&#195;&#162;ngulo 30" d="M63.542 52.1589H59.1948V56.5061H63.542V52.1589Z" fill="#004E6F"/>
</g>
</g>
</g>
</g>
<defs>
<clipPath id="clip0_5_170">
<rect width="99.9929" height="104.33" fill="white" transform="translate(0.503418)"/>
</clipPath>
</defs>
</svg>
