<svg width="27" height="27" viewBox="0 0 27 27" fill="none" xmlns="http://www.w3.org/2000/svg">
<g id="SVG">
<path id="instagram" d="M17.7567 13.6396C17.7565 12.5054 17.3058 11.4177 16.5038 10.6157C15.7018 9.81367 14.6141 9.36299 13.4799 9.36273C12.3457 9.36299 11.258 9.81367 10.456 10.6157C9.654 11.4177 9.20332 12.5054 9.20306 13.6396C9.20332 14.7738 9.654 15.8614 10.456 16.6634C11.258 17.4654 12.3457 17.9161 13.4799 17.9164C14.6141 17.9161 15.7018 17.4654 16.5038 16.6634C17.3058 15.8614 17.7565 14.7738 17.7567 13.6396ZM20.0621 13.6396C20.0651 14.5047 19.897 15.3618 19.5673 16.1617C19.2377 16.9615 18.753 17.6882 18.1413 18.2999C17.5296 18.9117 16.8028 19.3963 16.003 19.726C15.2032 20.0556 14.346 20.2238 13.4809 20.2208C12.6157 20.2239 11.7584 20.0559 10.9585 19.7263C10.1585 19.3967 9.43169 18.912 8.81985 18.3003C8.20802 17.6886 7.72328 16.9618 7.39356 16.1619C7.06383 15.362 6.89565 14.5048 6.89869 13.6396C6.89565 12.7745 7.0638 11.9173 7.39346 11.1175C7.72312 10.3176 8.20777 9.5909 8.8195 8.97917C9.43123 8.36744 10.1579 7.88279 10.9578 7.55313C11.7576 7.22347 12.6148 7.05532 13.4799 7.05835C14.345 7.05532 15.2022 7.22347 16.002 7.55313C16.8018 7.88279 17.5286 8.36744 18.1403 8.97917C18.752 9.5909 19.2367 10.3176 19.5663 11.1175C19.896 11.9173 20.0651 12.7745 20.0621 13.6396ZM21.8616 6.79043C21.8635 7.04401 21.8026 7.29411 21.6844 7.51845C21.5662 7.74278 21.3942 7.93436 21.184 8.07611C20.9737 8.21785 20.7316 8.30535 20.4793 8.33081C20.227 8.35626 19.9723 8.31887 19.738 8.22198C19.5036 8.12509 19.2969 7.97171 19.1362 7.77552C18.9756 7.57932 18.866 7.34641 18.8172 7.09756C18.7684 6.84871 18.782 6.59166 18.8567 6.34932C18.9314 6.10699 19.0649 5.88692 19.2453 5.70872C19.4602 5.49416 19.7339 5.34808 20.0317 5.28892C20.3296 5.22977 20.6383 5.2602 20.9188 5.37636C21.1994 5.49253 21.4393 5.68922 21.6081 5.94161C21.777 6.194 21.8673 6.49076 21.8676 6.79443L21.8616 6.79043ZM13.4799 3.11543L12.2022 3.10943C11.4285 3.10343 10.8409 3.10343 10.4397 3.10943C10.0385 3.11543 9.50098 3.13209 8.82716 3.15942C8.25061 3.17734 7.67587 3.23311 7.10663 3.32637C6.69998 3.39242 6.30037 3.49617 5.91295 3.63629C5.36207 3.85602 4.8617 4.18561 4.44232 4.60499C4.02295 5.02437 3.69335 5.52474 3.47362 6.07562C3.33414 6.4635 3.23073 6.86342 3.1647 7.2703C3.07158 7.83854 3.01581 8.41228 2.99775 8.98783C2.96976 9.66164 2.95376 10.1988 2.94976 10.5994C2.94576 10.9999 2.94576 11.5875 2.94976 12.3619C2.95576 13.1357 2.95876 13.5616 2.95876 13.6396C2.95876 13.7175 2.95576 14.1438 2.94976 14.9182C2.94376 15.692 2.94376 16.2795 2.94976 16.6807C2.95576 17.082 2.97242 17.6195 2.99975 18.2933C3.01767 18.8698 3.07344 19.4446 3.1667 20.0138C3.2321 20.4193 3.33484 20.8179 3.47362 21.2045C3.69335 21.7554 4.02295 22.2558 4.44232 22.6751C4.8617 23.0945 5.36207 23.4241 5.91295 23.6438C6.30084 23.7833 6.70075 23.8867 7.10763 23.9527C7.67687 24.046 8.25161 24.1018 8.82816 24.1197C9.50198 24.147 10.0395 24.1637 10.4407 24.1697C10.8419 24.1757 11.4295 24.1757 12.2032 24.1697L13.4809 24.1607L14.7585 24.1697C15.5323 24.1757 16.1198 24.1757 16.5211 24.1697C16.9223 24.1637 17.4598 24.147 18.1336 24.1197C18.7102 24.1018 19.2849 24.046 19.8542 23.9527C20.261 23.8867 20.6609 23.7833 21.0488 23.6438C21.5997 23.4241 22.1001 23.0945 22.5195 22.6751C22.9388 22.2558 23.2684 21.7554 23.4882 21.2045C23.6276 20.8166 23.731 20.4167 23.7971 20.0098C23.8903 19.4406 23.9461 18.8658 23.964 18.2893C23.9914 17.6155 24.008 17.078 24.014 16.6767C24.02 16.2755 24.02 15.688 24.014 14.9142C24.008 14.1404 24.005 13.7145 24.005 13.6366C24.005 13.5586 24.008 13.1327 24.014 12.3589C24.02 11.5851 24.02 10.9976 24.014 10.5964C24.008 10.1952 23.9914 9.65765 23.964 8.98383C23.9461 8.40728 23.8903 7.83253 23.7971 7.2633C23.731 6.85688 23.6269 6.45757 23.4862 6.07062C23.2664 5.51974 22.9368 5.01937 22.5175 4.59999C22.0981 4.18061 21.5977 3.85102 21.0468 3.63129C20.6589 3.49181 20.259 3.3884 19.8522 3.32237C19.2829 3.22912 18.7082 3.17334 18.1316 3.15542C17.4578 3.12809 16.9203 3.11143 16.5191 3.10543C16.1178 3.09943 15.5303 3.09943 14.7565 3.10543L13.4789 3.11443L13.4799 3.11543ZM26.3104 13.6396C26.3104 16.1895 26.2827 17.9557 26.2274 18.9381C26.2456 20.9294 25.5049 22.8528 24.156 24.3176C22.6911 25.6666 20.7677 26.4072 18.7764 26.3891C17.796 26.4444 16.0299 26.4721 13.4779 26.4721C10.9259 26.4721 9.15974 26.4444 8.17934 26.3891C6.18809 26.4072 4.26463 25.6666 2.7998 24.3176C1.4522 22.8515 0.713344 20.9274 0.733368 18.9361C0.67805 17.9557 0.650391 16.1902 0.650391 13.6396C0.650391 11.0889 0.67805 9.32274 0.733368 8.341C0.715977 6.35079 1.45657 4.42854 2.8048 2.96447C4.26963 1.61553 6.19309 0.874881 8.18433 0.893036C9.16473 0.837718 10.9299 0.810059 13.4799 0.810059C16.0299 0.810059 17.796 0.837718 18.7784 0.893036C20.7697 0.874881 22.6931 1.61553 24.158 2.96447C25.5069 4.4293 26.2476 6.35276 26.2294 8.344C26.2834 9.3244 26.3104 11.0896 26.3104 13.6396Z" fill="#3AA9A9"/>
</g>
</svg>
