<svg width="21" height="14" viewBox="0 0 21 14" fill="none" xmlns="http://www.w3.org/2000/svg">
<g id="icon-arrow-right-yellow.svg" clip-path="url(#clip0_5_93)">
<g id="Clip path group">
<mask id="mask0_5_93" style="mask-type:luminance" maskUnits="userSpaceOnUse" x="0" y="0" width="21" height="14">
<g id="a">
<path id="Ret&#195;&#162;ngulo 18" d="M20.2002 0.799927H0.200195V13.2649H20.2002V0.799927Z" fill="white"/>
</g>
</mask>
<g mask="url(#mask0_5_93)">
<g id="Grupo 17">
<path id="Caminho 21" d="M19.889 7.90867C19.9028 7.89242 19.914 7.87492 19.9265 7.85867C19.939 7.84242 19.9553 7.82117 19.969 7.80117C19.9828 7.78117 19.994 7.75992 20.0065 7.73992C20.019 7.71992 20.029 7.70492 20.0378 7.68617C20.0465 7.66742 20.0578 7.64367 20.0678 7.62242C20.0778 7.60117 20.0865 7.58367 20.0953 7.56492C20.104 7.54617 20.1103 7.52367 20.1178 7.50242C20.1253 7.48117 20.134 7.45992 20.1403 7.43867C20.1465 7.41742 20.1515 7.39617 20.1565 7.37492C20.1615 7.35367 20.1678 7.33117 20.1728 7.30742C20.1778 7.28367 20.1803 7.25867 20.184 7.23367C20.1878 7.20867 20.1903 7.19492 20.1928 7.17492C20.2016 7.08514 20.2016 6.99471 20.1928 6.90492C20.1928 6.88367 20.1928 6.86367 20.184 6.84367C20.1753 6.82367 20.184 6.79617 20.1728 6.77242C20.1615 6.74867 20.1615 6.72617 20.1553 6.70242C20.149 6.67867 20.1453 6.66242 20.1403 6.64242C20.1353 6.62242 20.1253 6.59742 20.1165 6.57492C20.1078 6.55242 20.1028 6.53492 20.0953 6.51492C20.0878 6.49492 20.0765 6.47367 20.0665 6.45367C20.0565 6.43367 20.0478 6.41367 20.0378 6.39367C20.0278 6.37367 20.0153 6.35492 20.004 6.33617C19.9928 6.31742 19.9815 6.29742 19.969 6.27867C19.9565 6.25992 19.939 6.23617 19.9228 6.21617C19.9065 6.19617 19.9015 6.18617 19.889 6.17117C19.858 6.13363 19.8251 6.09775 19.7903 6.06367V6.05742L14.9315 1.20242C14.8083 1.05849 14.6566 0.941583 14.486 0.859051C14.3154 0.776519 14.1296 0.730141 13.9402 0.722826C13.7509 0.715512 13.562 0.74742 13.3856 0.816548C13.2091 0.885675 13.0489 0.99053 12.9149 1.12453C12.7809 1.25853 12.676 1.41878 12.6069 1.59523C12.5378 1.77168 12.5059 1.96051 12.5132 2.14987C12.5205 2.33924 12.5669 2.52504 12.6494 2.69563C12.7319 2.86622 12.8488 3.01791 12.9928 3.14117L15.5203 5.66867H1.57528C1.22912 5.69429 0.905455 5.84988 0.669246 6.10422C0.433036 6.35856 0.301758 6.69282 0.301758 7.03992C0.301758 7.38703 0.433036 7.72129 0.669246 7.97563C0.905455 8.22997 1.22912 8.38556 1.57528 8.41117H15.519L13.0053 10.9249C12.8668 11.05 12.7552 11.202 12.6773 11.3716C12.5995 11.5412 12.557 11.7249 12.5524 11.9115C12.5478 12.0981 12.5812 12.2836 12.6507 12.4568C12.7201 12.6301 12.8241 12.7874 12.9563 12.9191C13.0884 13.0509 13.2461 13.1543 13.4195 13.2232C13.593 13.2921 13.7786 13.3249 13.9652 13.3197C14.1517 13.3146 14.3353 13.2714 14.5046 13.193C14.674 13.1146 14.8256 13.0026 14.9503 12.8637L19.8053 8.00867C19.8361 7.97784 19.8653 7.94576 19.8928 7.91242" fill="#004E6F"/>
</g>
</g>
</g>
</g>
<defs>
<clipPath id="clip0_5_93">
<rect width="20" height="12.465" fill="white" transform="translate(0.200195 0.799927)"/>
</clipPath>
</defs>
</svg>
