<svg width="26" height="27" viewBox="0 0 26 27" fill="none" xmlns="http://www.w3.org/2000/svg">
<g id="SVG">
<path id="linkedin-rect" d="M5.33424 0.810059C4.00287 0.814277 2.72725 1.3451 1.78591 2.28662C0.844581 3.22814 0.314012 4.50387 0.310059 5.83524V21.4265C0.314278 22.7578 0.845133 24.0333 1.78668 24.9744C2.72823 25.9156 4.00396 26.446 5.33524 26.4497H20.9265C22.2575 26.4457 23.5329 25.9152 24.474 24.974C25.4152 24.0329 25.9457 22.7575 25.9497 21.4265V5.83524C25.946 4.50413 25.4158 3.22855 24.4748 2.28703C23.5338 1.34551 22.2586 0.814542 20.9275 0.810059H5.33424ZM6.59953 5.04168C6.87749 5.02128 7.15667 5.05866 7.41948 5.15145C7.68229 5.24425 7.92304 5.39046 8.12656 5.58087C8.33009 5.77129 8.49199 6.00178 8.60205 6.25783C8.71212 6.51389 8.76798 6.78996 8.76612 7.06867C8.76425 7.34737 8.70469 7.62267 8.5912 7.87723C8.4777 8.13179 8.31273 8.36009 8.10667 8.54776C7.90061 8.73542 7.65792 8.87839 7.39389 8.96766C7.12986 9.05692 6.85021 9.09055 6.57254 9.06642H6.54756C6.27071 9.08299 5.99343 9.04232 5.73301 8.94693C5.47259 8.85155 5.23463 8.70351 5.03398 8.51205C4.83333 8.32059 4.6743 8.08983 4.56682 7.83416C4.45934 7.5785 4.40572 7.30342 4.4093 7.02611C4.41288 6.74879 4.47359 6.47519 4.58763 6.22239C4.70168 5.96958 4.86661 5.743 5.07214 5.55679C5.27766 5.37057 5.51937 5.22873 5.78216 5.1401C6.04496 5.05147 6.3232 5.01797 6.59953 5.04168ZM18.0161 10.3847C20.5647 10.3847 22.4736 12.0497 22.4736 15.6287V22.31H18.6018V16.0775C18.6018 14.5114 18.0421 13.442 16.6399 13.442C16.2032 13.4447 15.778 13.5823 15.4224 13.8357C15.0668 14.0892 14.7981 14.4463 14.653 14.8582C14.5535 15.1626 14.5102 15.4827 14.5251 15.8026V22.31H10.6523C10.6523 22.31 10.7032 11.7509 10.6523 10.6585H14.5251V12.3086C14.8755 11.6998 15.3862 11.1986 16.0015 10.8596C16.6168 10.5206 17.3132 10.3567 18.0151 10.3857L18.0161 10.3847ZM4.63663 10.6595H8.50846V22.31H4.63663V10.6595Z" fill="#3AA9A9"/>
</g>
</svg>
