<svg width="26" height="27" viewBox="0 0 26 27" fill="none" xmlns="http://www.w3.org/2000/svg">
<g id="SVG">
<path id="facebook-square" d="M20.8484 0.810096C21.4813 0.800856 22.1094 0.921337 22.694 1.16411C23.2786 1.40689 23.8073 1.76682 24.2474 2.22171C24.7026 2.66171 25.0627 3.19035 25.3054 3.77498C25.5482 4.35961 25.6686 4.98781 25.6591 5.62078V21.6584C25.6569 22.9336 25.1494 24.156 24.2477 25.0577C23.346 25.9595 22.1236 26.467 20.8484 26.4691H17.7082V16.5298H21.0323L21.5322 12.6539H17.7082V10.1815C17.6719 9.68345 17.8109 9.18834 18.1011 8.78192C18.3079 8.59927 18.551 8.46259 18.8145 8.3809C19.078 8.29921 19.3559 8.27438 19.6297 8.30805L21.6671 8.29206V4.836C20.6805 4.72012 19.6872 4.67002 18.694 4.68604C18.0296 4.65392 17.3655 4.75569 16.7412 4.98531C16.1169 5.21493 15.5452 5.56771 15.0599 6.02267C14.5868 6.52534 14.2217 7.11965 13.9871 7.76891C13.7526 8.41818 13.6536 9.10863 13.6963 9.79764V12.6549H10.3572V16.5308H13.6963V26.4701H4.81074C4.17781 26.4793 3.5497 26.3589 2.96511 26.1161C2.38052 25.8733 1.85184 25.5134 1.41167 25.0585C0.956411 24.6184 0.596254 24.0896 0.353456 23.5048C0.110658 22.9199 -0.00962091 22.2915 5.21124e-05 21.6584V5.62078C-0.00918742 4.98785 0.111294 4.35974 0.35407 3.77515C0.596846 3.19056 0.956773 2.66189 1.41167 2.22171C1.85166 1.76658 2.3803 1.40649 2.96494 1.1637C3.54957 0.920906 4.17777 0.80056 4.81074 0.810096H20.8484Z" fill="#3AA9A9"/>
</g>
</svg>
